<?xml version="1.0" encoding="UTF-8" standalone="no"?>
<svg
   xmlns:dc="http://purl.org/dc/elements/1.1/"
   xmlns:cc="http://web.resource.org/cc/"
   xmlns:rdf="http://www.w3.org/1999/02/22-rdf-syntax-ns#"
   xmlns:svg="http://www.w3.org/2000/svg"
   xmlns="http://www.w3.org/2000/svg"
   xmlns:xlink="http://www.w3.org/1999/xlink"
   xmlns:sodipodi="http://sodipodi.sourceforge.net/DTD/sodipodi-0.dtd"
   xmlns:inkscape="http://www.inkscape.org/namespaces/inkscape"
   version="1.0"
   width="48"
   height="48"
   id="svg1800"
   sodipodi:version="0.32"
   inkscape:version="0.45.1"
   sodipodi:docname="Tango-nosources.svg"
   inkscape:output_extension="org.inkscape.output.svg.inkscape"
   sodipodi:docbase="/Users/marco/Desktop">
  <metadata
     id="metadata16">
    <rdf:RDF>
      <cc:Work
         rdf:about="">
        <dc:format>image/svg+xml</dc:format>
        <dc:type
           rdf:resource="http://purl.org/dc/dcmitype/StillImage" />
      </cc:Work>
    </rdf:RDF>
  </metadata>
  <sodipodi:namedview
     inkscape:window-height="844"
     inkscape:window-width="1440"
     inkscape:pageshadow="2"
     inkscape:pageopacity="0.0"
     guidetolerance="10.0"
     gridtolerance="10.0"
     objecttolerance="10.0"
     borderopacity="1.0"
     bordercolor="#666666"
     pagecolor="#ffffff"
     id="base"
     inkscape:zoom="3.5286458"
     inkscape:cx="24"
     inkscape:cy="24"
     inkscape:window-x="0"
     inkscape:window-y="0"
     inkscape:current-layer="svg1800" />
  <defs
     id="defs3">
    <linearGradient
       id="linearGradient3101">
      <stop
         style="stop-color:#000000;stop-opacity:1"
         offset="0"
         id="stop3103" />
      <stop
         style="stop-color:#000000;stop-opacity:0"
         offset="1"
         id="stop3105" />
    </linearGradient>
    <radialGradient
       cx="17.3125"
       cy="25.53125"
       r="9.6875"
       fx="17.3125"
       fy="25.53125"
       id="radialGradient3107"
       xlink:href="#linearGradient3101"
       gradientUnits="userSpaceOnUse"
       gradientTransform="matrix(1,0,0,0.351613,0,16.55413)" />
  </defs>
  <g
     id="layer1">
    <path
       d="M 27,25.53125 C 27,27.41247 22.662759,28.9375 17.3125,28.9375 C 11.962241,28.9375 7.625,27.41247 7.625,25.53125 C 7.625,23.65003 11.962241,22.125 17.3125,22.125 C 22.662759,22.125 27,23.65003 27,25.53125 L 27,25.53125 z "
       transform="matrix(2.182912,0,0,2.182912,-13.50372,-14.35012)"
       style="opacity:0.40909089;color:#000000;fill:url(#radialGradient3107);fill-opacity:1;fill-rule:nonzero;stroke:none;stroke-width:1.10533953;stroke-linecap:butt;stroke-linejoin:miter;marker:none;marker-start:none;marker-mid:none;marker-end:none;stroke-miterlimit:4;stroke-dasharray:none;stroke-dashoffset:0;stroke-opacity:1;visibility:visible;display:inline;overflow:visible"
       id="path3099" />
    <path
       d="M 46.138718,23.42804 C 46.138718,35.143769 36.285088,44.641244 24.130018,44.641244 C 11.974949,44.641244 2.1213188,35.143769 2.1213188,23.42804 C 2.1213188,11.712311 11.974949,2.2148364 24.130018,2.2148364 C 36.285088,2.2148364 46.138718,11.712311 46.138718,23.42804 L 46.138718,23.42804 z "
       transform="matrix(0.94463,0,0,0.980053,1.504174,-1.556912)"
       style="opacity:1;fill:#f57900;fill-opacity:1;fill-rule:nonzero;stroke:#914900;stroke-width:0.98214942;stroke-linecap:round;stroke-linejoin:round;stroke-miterlimit:4;stroke-dasharray:none;stroke-dashoffset:0;stroke-opacity:1"
       id="path1650" />
    <path
       d="M 46.138718,23.42804 C 46.138718,35.143769 36.285088,44.641244 24.130018,44.641244 C 11.974949,44.641244 2.1213188,35.143769 2.1213188,23.42804 C 2.1213188,11.712311 11.974949,2.2148364 24.130018,2.2148364 C 36.285088,2.2148364 46.138718,11.712311 46.138718,23.42804 L 46.138718,23.42804 z "
       transform="matrix(0.914086,0,0,0.948364,2.380576,-0.905815)"
       style="opacity:1;fill:none;fill-opacity:1;fill-rule:nonzero;stroke:#fcaf3e;stroke-width:0.98214942;stroke-linecap:round;stroke-linejoin:round;stroke-miterlimit:4;stroke-dasharray:none;stroke-dashoffset:0;stroke-opacity:1"
       id="path3392" />
    <path
       d="M 43.676426,20.47678 C 43.676426,31.307396 37.624257,16.170581 25.001688,20.863168 C 12.279172,25.592912 4.4350535,31.307396 4.4350535,20.47678 C 4.4350535,9.6461627 13.22512,0.85609769 24.05574,0.85609769 C 34.886359,0.85609769 43.676426,9.6461627 43.676426,20.47678 z "
       style="fill:#fffeff;fill-opacity:0.21390375;fill-rule:nonzero;stroke:none;stroke-width:1;stroke-linecap:round;stroke-linejoin:round;stroke-miterlimit:4;stroke-dashoffset:0;stroke-opacity:1"
       id="path3068" />
  </g>
  <path
     style="fill:#ffffff;fill-opacity:1"
     d="M 14.427725,34.78101 C 14.345851,34.680469 13.976232,33.867875 13.60635,32.975247 C 12.184588,29.544144 10.983848,26.625504 9.3113445,22.535384 L 7.5762825,18.292276 L 7.8137965,17.791749 C 7.9444305,17.51646 8.0513125,17.130724 8.0513125,16.934559 C 8.0513125,16.738395 8.1529315,16.235709 8.2771325,15.817479 C 8.4455355,15.250404 8.6424815,14.953386 9.0517265,14.649297 C 9.3535535,14.425024 10.231242,13.65184 11.002149,12.931108 C 13.473274,10.620814 15.118977,9.7374168 16.951768,9.7374168 C 17.753332,9.7374168 17.97738,9.7996408 18.467757,10.158442 C 18.784237,10.390006 19.169655,10.721975 19.324241,10.896151 C 19.729298,11.352539 19.927122,11.292385 20.344918,10.585783 C 20.867158,9.7025348 21.722093,8.9216208 22.5826,8.5418407 C 23.219405,8.2607916 23.717094,8.2003906 26.271144,8.0941946 C 27.894971,8.0266756 29.471727,7.9300506 29.775045,7.8794716 C 30.423102,7.7714046 29.817928,7.2166786 36.511,14.053917 L 40.95313,18.591728 L 40.95313,19.246265 C 40.95313,19.835758 41.040847,20.000615 41.835817,20.905208 C 42.707795,21.89743 42.718534,21.920581 42.721068,22.813685 C 42.722623,23.362095 42.651078,23.776289 42.539205,23.866546 C 42.43777,23.948382 41.657642,24.128602 40.805589,24.267036 C 39.953535,24.405472 37.449522,24.877794 35.241117,25.316646 C 33.032711,25.755495 31.190986,26.114555 31.148395,26.114555 C 31.105802,26.114555 30.707837,26.443396 30.264025,26.845314 C 29.037436,27.956118 28.692569,28.097175 27.147888,28.119872 L 25.809927,28.13953 L 23.696242,29.278579 C 21.219539,30.613254 19.137996,31.884217 16.682507,33.561075 C 14.473631,35.06952 14.604853,34.998525 14.427725,34.78101 z M 16.534965,31.996787 C 18.077198,30.690786 20.84607,28.660347 21.85178,28.097922 C 23.318165,27.277873 24.234991,26.972413 25.535014,26.870774 L 26.715348,26.778493 L 26.882004,25.934503 C 26.973666,25.47031 27.159659,24.813102 27.295323,24.474041 C 27.453357,24.079081 27.490962,23.806545 27.399981,23.715564 C 27.321878,23.637461 26.770718,23.575661 26.175182,23.578235 C 24.138679,23.587031 22.183616,24.477993 19.633343,26.55948 C 18.821863,27.221797 17.543782,28.225824 16.793164,28.790654 C 15.490991,29.770522 15.428402,29.843359 15.428402,30.378884 C 15.428402,30.687578 15.385746,31.34825 15.333612,31.847041 C 15.214155,32.989947 15.343175,33.006029 16.534965,31.996787 z M 14.725335,30.725235 L 14.794353,29.729328 L 11.999295,23.089948 C 10.462012,19.438288 9.1451165,16.3886 9.0728595,16.312863 C 8.8511335,16.080458 8.7363515,16.345374 8.6717385,17.238656 C 8.6133665,18.045639 8.6853615,18.274129 9.9375914,21.256064 C 12.381968,27.076865 14.133184,31.202431 14.270196,31.462944 C 14.522323,31.942332 14.656005,31.725657 14.725335,30.725235 z M 16.375189,28.189399 C 16.904516,27.788752 17.820947,27.039956 18.411701,26.525407 C 21.316826,23.995034 23.621267,22.868636 25.892911,22.868636 C 26.551069,22.868636 26.820981,22.80974 26.881128,22.653002 C 26.928133,22.530506 26.618273,21.941017 26.163755,21.28824 C 25.723691,20.65622 24.642115,19.110008 23.760256,17.852215 C 22.878397,16.594421 21.679334,14.868182 21.095672,14.016128 C 19.992191,12.405223 18.399588,10.735292 17.72054,10.477117 C 16.762189,10.112754 15.121018,10.550645 13.684818,11.553914 C 12.503454,12.379166 9.6120904,15.042166 9.5554054,15.357183 C 9.5306014,15.495018 10.603269,18.187593 11.939111,21.340684 C 15.104611,28.812461 15.15125,28.917848 15.292332,28.917848 C 15.358576,28.917848 15.845861,28.590046 16.375189,28.189399 z M 30.947552,24.44946 C 32.301044,23.103514 32.923637,22.945452 37.673411,22.741915 C 39.253573,22.674202 40.435235,22.560297 40.528868,22.466664 C 40.643486,22.352046 40.642616,22.092496 40.525783,21.547727 C 40.436233,21.130167 40.362963,20.534349 40.362963,20.223686 C 40.362963,19.33409 40.244502,19.299738 37.760992,19.469135 C 33.412949,19.765711 31.183141,20.388651 29.953981,21.650177 C 29.389877,22.229135 28.326227,24.15984 28.484293,24.317907 C 28.534429,24.368042 28.807991,24.389027 29.092211,24.364539 C 29.551056,24.325007 29.628207,24.370974 29.780582,24.774661 C 29.874967,25.024715 29.999698,25.229304 30.057763,25.229304 C 30.115828,25.229304 30.516233,24.878374 30.947552,24.44946 z M 28.675974,22.007334 C 29.043779,21.352912 30.226973,20.202557 30.879152,19.8653 C 31.803598,19.387251 33.557975,19.030405 36.072597,18.808938 C 39.391336,18.516649 39.654614,18.473089 39.597568,18.225754 C 39.572222,18.115863 37.404934,15.857208 34.781372,13.206522 C 31.112746,9.4999658 29.954385,8.4117316 29.764952,8.4937886 C 29.629482,8.5524696 28.223963,8.6494938 26.641577,8.7093968 C 23.203031,8.8395668 22.494956,9.0186768 21.608859,9.9824418 C 21.108069,10.527128 20.444823,11.53044 20.444823,11.743314 C 20.444823,11.835107 20.760193,12.343081 21.145646,12.872143 C 21.531099,13.401208 22.278029,14.452377 22.805491,15.208077 C 26.596031,20.638825 28.01299,22.573552 28.19983,22.573552 C 28.286682,22.573552 28.500946,22.318755 28.675974,22.007334 z M 30.723567,18.34402 C 30.400976,18.02143 31.18304,16.966963 31.744884,16.966963 C 32.250967,16.966963 32.206582,17.428475 31.646649,17.988408 C 31.202369,18.432687 30.920732,18.541186 30.723567,18.34402 z M 29.68517,16.372453 C 29.082982,15.656793 29.062294,15.119776 29.579756,13.636018 C 29.830161,12.91801 30.035039,12.090636 30.035039,11.79741 C 30.035039,10.489641 28.450587,10.126973 26.638475,11.019965 C 25.525397,11.56848 24.475934,12.544509 24.301875,13.193065 C 24.097,13.95644 24.209624,14.047249 25.226239,13.938378 C 25.992844,13.856283 26.186628,13.885079 26.483095,14.125143 C 27.183547,14.692335 26.410377,15.639088 25.246725,15.639088 C 24.176151,15.639088 23.395658,14.893176 23.395658,13.870036 C 23.395658,12.7716 24.63948,11.369328 26.319994,10.57317 C 27.173277,10.16892 27.465365,10.106271 28.496816,10.106271 C 29.521866,10.106271 29.765202,10.157746 30.240513,10.475126 C 30.544332,10.677996 30.921163,11.090311 31.077915,11.391383 C 31.505021,12.211732 31.439819,12.983978 30.827179,14.361081 C 30.492122,15.114226 30.289474,15.800204 30.286192,16.19237 C 30.283304,16.537249 30.231516,16.819422 30.171106,16.819422 C 30.110697,16.819422 29.892025,16.618286 29.68517,16.372453 z "
     id="path2176" />
</svg>
